# xmcd
#
# Track frame offsets:
#	150
#	17877
#	33625
#	47523
#	64501
#	78014
#	94507
#	113653
#	127835
#	144441
#	162068
#	175658
#	196007
#	207066
#	220367
#	233288
#
# Disc length: 3289 seconds
#
# Revision: 1
# Processed by: cddbd v1.5.2PL0 Copyright (c) Steve Scherf et al.
# Submitted via: audiograbber 1.83.01
#
DISCID=ba0cd710
DTITLE=Jerry Hanlon - Stars On The Horizon Jerry Hanlon
DYEAR=1999
DGENRE=Country
TTITLE0=The Other Woman - Tracy Wells
TTITLE1=Strongest Man In Town - Jerry Hanlon
TTITLE2=She Need An Honest Man - Dan Folland
TTITLE3=A Scene Of Sadness - Clint Miller
TTITLE4=The Other Side Of The Rainbow - Willie Morrissey
TTITLE5=By The Way - David Clayton Mize
TTITLE6=You Seldom Come To See Me Anymore - Jackie Nelson
TTITLE7=Would I Still Have You - Garry Johnson
TTITLE8=My Elusive Dreams - Tracy Wells and Jerry Hanlon
TTITLE9=The World Holds Its Breath - Dan Folland
TTITLE10=This Honky Tonk Life - David Clayton Mize
TTITLE11=It´s Too Late For Goodbye - Jackie Nelson
TTITLE12=Cold Ac Ice - Garry Johnson
TTITLE13=All I Have - Steve Axley
TTITLE14=It´s Our Turn Tonigth - Steve "diamond Ace" Jones
TTITLE15=Lock, Stock And Barrel - Rob Miller
EXTD=
EXTT0=
EXTT1=
EXTT2=
EXTT3=
EXTT4=
EXTT5=
EXTT6=
EXTT7=
EXTT8=
EXTT9=
EXTT10=
EXTT11=
EXTT12=
EXTT13=
EXTT14=
EXTT15=
PLAYORDER=
